<svg width="1108" height="48" viewBox="0 0 1108 48" fill="none" xmlns="http://www.w3.org/2000/svg">
<path d="M0 5.88975C0 4.85038 0.342457 4.15748 0.684911 3.46457C2.05473 0.692914 5.47927 -2.12193e-05 7.87645 1.38581L62.6691 31.874L120.201 0L177.734 31.874L235.266 0L292.798 31.874L350.331 0L410.26 33.2598C413 34.6457 413.685 38.1102 412.315 40.5354C410.945 43.3071 407.521 44 405.124 42.6142L350.331 12.126L292.798 44L235.266 12.126L177.734 44L120.201 12.126L62.6691 44L2.73963 10.7402C1.02736 9.70078 0 7.9685 0 5.88975Z" fill="#C4FFFF"/>
<path d="M348 7.88975C348 6.85038 348.342 6.15748 348.685 5.46457C350.055 2.69291 353.479 1.99998 355.876 3.38581L410.669 33.874L468.201 2L525.734 33.874L583.266 2L640.798 33.874L698.331 2L758.26 35.2598C761 36.6457 761.685 40.1102 760.315 42.5354C758.945 45.3071 755.521 46 753.124 44.6142L698.331 14.126L640.798 46L583.266 14.126L525.734 46L468.201 14.126L410.669 46L350.74 12.7402C349.027 11.7008 348 9.9685 348 7.88975Z" fill="#C4FFFF"/>
<path d="M695 9.88975C695 8.85038 695.342 8.15748 695.685 7.46457C697.055 4.69291 700.479 3.99998 702.876 5.38581L757.669 35.874L815.201 4L872.734 35.874L930.266 4L987.798 35.874L1045.33 4L1105.26 37.2598C1108 38.6457 1108.68 42.1102 1107.32 44.5354C1105.95 47.3071 1102.52 48 1100.12 46.6142L1045.33 16.126L987.798 48L930.266 16.126L872.734 48L815.201 16.126L757.669 48L697.74 14.7402C696.027 13.7008 695 11.9685 695 9.88975Z" fill="#C4FFFF"/>
</svg>
